<?xml version="1.0" encoding="utf-8"?>
<!-- Generator: Adobe Illustrator 16.0.0, SVG Export Plug-In . SVG Version: 6.00 Build 0)  -->
<!DOCTYPE svg PUBLIC "-//W3C//DTD SVG 1.1//EN" "http://www.w3.org/Graphics/SVG/1.1/DTD/svg11.dtd">
<svg version="1.1" id="图层_1" xmlns="http://www.w3.org/2000/svg" xmlns:xlink="http://www.w3.org/1999/xlink" x="0px" y="0px"
	 width="108px" height="108px" viewBox="0 0 108 108" enable-background="new 0 0 108 108" xml:space="preserve">
<g>
	<path fill="#DDDDDD" d="M49,106.67L0,80.037V26.636L49,0l49,26.636v53.401L49,106.67z M3,78.08l45.5,24.797L94,78.08V28.595
		L48.5,3.792L3,28.595V78.08z"/>
</g>
<g>
	<path fill-rule="evenodd" clip-rule="evenodd" fill="#DDDDDD" d="M90.224,27.511c0,6.72,0,13.439,0,20.371
		c-1.393,0-2.802,0.148-4.165-0.036c-2.139-0.288-3.614,0.539-4.984,2.101c-1.638,1.866-3.483,3.546-5.509,5.58
		c0-2.739,0-5.097,0-7.603c-4.252,0-8.345,0-12.606,0c0-6.903,0-13.657,0-20.412C72.046,27.511,81.135,27.511,90.224,27.511z"/>
	<path fill-rule="evenodd" clip-rule="evenodd" fill="#DDDDDD" d="M4.667,44.748c0.474-1.903,0.858-3.834,1.438-5.705
		c1.232-3.981,4.084-6.329,8.013-7.348c10.963-2.84,21.926-2.909,32.848,0.24c3.662,1.056,6.173,3.416,7.286,7.074
		c0.602,1.979,1.019,4.025,1.353,6.069c0.228,1.39-0.769,2.527-2.186,2.459c-2.911-0.136-5.821-0.381-8.716-0.72
		c-1.206-0.141-1.89-1.004-1.871-2.309c0.015-1.095,0.012-2.192-0.021-3.287c-0.064-2.106-0.882-2.98-2.947-2.989
		c-6.471-0.027-12.941-0.03-19.411,0.003c-1.972,0.01-2.808,0.911-2.868,2.907c-0.033,1.095-0.033,2.191-0.007,3.287
		c0.038,1.561-0.865,2.322-2.254,2.479c-2.484,0.282-4.985,0.413-7.474,0.667c-1.565,0.159-2.622-0.414-3.182-1.889
		C4.667,45.374,4.667,45.061,4.667,44.748z"/>
	<path fill-rule="evenodd" clip-rule="evenodd" fill="#DDDDDD" d="M16.669,75.327c-0.339,4.09-0.92,5.25-2.794,5.135
		c-3.415-0.209-2.57-3.02-2.896-5.156c-0.489-0.055-0.947-0.098-1.401-0.162c-2.092-0.299-3.507-1.73-3.663-3.838
		c-0.1-1.35-0.007-2.713-0.075-4.068c-0.099-1.965,0.691-3.496,2.018-4.893c4.311-4.545,8.589-9.124,12.819-13.745
		c0.497-0.542,0.621-1.426,0.913-2.154c0.018-0.046,0.002-0.104,0.003-0.157c0.013-2.589,0.967-3.967,2.765-3.996
		c1.768-0.028,2.78,1.386,2.816,3.936c0.006,0.364,0.002,0.728,0.002,1.215c2.006,0,3.948,0,5.919,0
		c0.119-1.043,0.175-2.074,0.366-3.08c0.265-1.394,1.331-2.04,2.6-2.024c1.195,0.015,2.187,0.652,2.506,1.965
		c0.074,0.303,0.266,0.632,0.206,0.905c-0.474,2.174,0.893,3.461,2.195,4.833c3.847,4.051,7.631,8.163,11.492,12.2
		c1.411,1.475,2.261,3.09,2.102,5.174c-0.056,0.725-0.008,1.461-0.009,2.189c-0.003,3.98-1.125,5.254-5.169,5.693
		c-0.039,0.83-0.048,1.693-0.128,2.553c-0.153,1.676-1.176,2.65-2.709,2.637c-1.469-0.014-2.587-1.104-2.697-2.693
		c-0.053-0.777-0.008-1.563-0.008-2.469C34.768,75.327,25.773,75.327,16.669,75.327z M21.906,61.36
		c0.292,4.701,3.142,8.199,8.188,8.301c4.707,0.096,8.287-3.1,8.328-8.242c0.038-4.74-3.349-8.202-8.196-8.23
		C25.481,53.163,22.237,56.558,21.906,61.36z"/>
	<path fill-rule="evenodd" clip-rule="evenodd" fill="#DDDDDD" d="M64.809,62.694c0,1.455,0,2.727,0,4.355
		c-2.648-2.127-4.221-5.703-8.346-4.107c0-4.037,0-7.754,0-11.555c5.122,0,10.2,0,15.364,0c0,3.76,0,7.438,0,11.307
		C69.496,62.694,67.23,62.694,64.809,62.694z"/>
	<path fill-rule="evenodd" clip-rule="evenodd" fill="#DDDDDD" d="M34.457,61.599c-0.084,2.242-2.067,4.162-4.28,4.145
		c-2.371-0.02-4.313-2.088-4.223-4.502c0.087-2.355,2.087-4.201,4.422-4.082C32.759,57.28,34.544,59.224,34.457,61.599z"/>
</g>
</svg>
