<?xml version="1.0" encoding="utf-8"?>
<!-- Generator: Adobe Illustrator 16.0.0, SVG Export Plug-In . SVG Version: 6.00 Build 0)  -->
<!DOCTYPE svg PUBLIC "-//W3C//DTD SVG 1.1//EN" "http://www.w3.org/Graphics/SVG/1.1/DTD/svg11.dtd">
<svg version="1.1" id="图层_1" xmlns="http://www.w3.org/2000/svg" xmlns:xlink="http://www.w3.org/1999/xlink" x="0px" y="0px"
	 width="32px" height="32px" viewBox="0 0 32 32" enable-background="new 0 0 32 32" xml:space="preserve">
<path fill-rule="evenodd" clip-rule="evenodd" fill="#FF1B1B" d="M7.84,25.23c0.222-0.531,0.392-0.891,0.524-1.264
	c0.361-1.012,0.179-1.77-0.757-2.494c-2.138-1.658-4.169-3.451-6.289-5.228c1.766-0.873,1.832-1.003,1.344-2.842
	c-0.275-1.035-0.586-2.059-0.932-3.264c0.819,0.203,1.499,0.362,2.174,0.54C5.962,11.219,6.392,11,7.223,8.815
	c0.896,1,1.702,1.964,2.583,2.854c0.441,0.447,1.023,0.756,1.541,1.125c0.061-0.655,0.265-1.338,0.156-1.966
	c-0.348-2.008-0.817-3.992-1.229-5.988c-0.045-0.216-0.029-0.445-0.048-0.803c0.742,0.397,1.383,0.707,1.99,1.079
	c0.623,0.38,1.021,0.25,1.346-0.392c0.773-1.527,1.576-3.041,2.455-4.727c0.723,1.406,1.405,2.689,2.049,3.988
	c0.82,1.647,0.807,1.654,2.463,0.731c0.4-0.224,0.807-0.438,1.336-0.722c-0.51,2.612-1.01,5.072-1.439,7.541
	c-0.07,0.392,0.178,0.838,0.275,1.259c0.355-0.202,0.785-0.332,1.057-0.617c0.99-1.041,1.928-2.134,3.02-3.361
	c0.998,3.585,3.35,1.571,5.404,1.394c-0.289,1.17-0.576,2.278-0.836,3.391c-0.406,1.734-0.363,1.803,1.336,2.644
	c-1.963,1.659-3.859,3.298-5.799,4.89c-1.6,1.318-1.682,1.504-0.984,3.428c0.055,0.148,0.105,0.295,0.232,0.641
	c-1.84-0.273-3.547-0.521-5.256-0.789c-2.574-0.396-2.589-0.395-2.477,2.146c0.077,1.789,0.187,3.576,0.284,5.441
	c-0.485,0-0.822,0-1.052,0c0-2.094-0.03-4.127,0.008-6.152c0.029-1.615-0.043-1.76-1.667-1.551
	C11.991,24.557,10.023,24.896,7.84,25.23z"/>
</svg>
