<?xml version="1.0" encoding="utf-8"?>
<!-- Generator: Adobe Illustrator 16.0.0, SVG Export Plug-In . SVG Version: 6.00 Build 0)  -->
<!DOCTYPE svg PUBLIC "-//W3C//DTD SVG 1.1//EN" "http://www.w3.org/Graphics/SVG/1.1/DTD/svg11.dtd">
<svg version="1.1" id="图层_1" xmlns="http://www.w3.org/2000/svg" xmlns:xlink="http://www.w3.org/1999/xlink" x="0px" y="0px"
	 width="108px" height="108px" viewBox="0 0 108 108" enable-background="new 0 0 108 108" xml:space="preserve">
<g>
	<path fill="#DDDDDD" d="M49,106.67L0,80.037V26.636L49,0l49,26.636v53.401L49,106.67z M3,78.08l45.5,24.797L94,78.08V28.595
		L48.5,3.792L3,28.595V78.08z"/>
</g>
<g>
	<path fill-rule="evenodd" clip-rule="evenodd" fill="#DDDDDD" d="M32.83,92c-2.1-1.243-2.487-3.174-2.448-5.453
		c0.095-5.599,0.033-11.199,0.033-16.8c0-0.402,0-0.805,0-1.388c-0.492,0-0.917,0-1.341,0c-5.083,0-10.167,0.003-15.252-0.002
		c-1.287-0.001-1.484-0.183-1.486-1.452c-0.006-8.988-0.006-17.977-0.001-26.967c0.001-1.266,0.244-1.528,1.452-1.541
		c1.768-0.019,3.537,0.004,5.305-0.008c0.967-0.006,1.361,0.405,1.356,1.41c-0.031,6.411-0.016,12.821-0.016,19.231
		c0,0.436,0,0.87,0,1.457c0.529,0,0.956,0,1.383,0c4.974,0,9.947-0.003,14.921,0.001c1.553,0.001,1.738,0.176,1.742,1.686
		c0.021,8.438,0.017,16.874,0.067,25.311c0.011,1.981-0.869,3.396-2.397,4.515C35.041,92,33.935,92,32.83,92z"/>
	<path fill-rule="evenodd" clip-rule="evenodd" fill="#DDDDDD" d="M59.801,92c-1.938-1.069-2.469-2.76-2.451-4.889
		c0.064-8.32,0.027-16.643,0.029-24.964c0.002-1.477,0.078-1.557,1.576-1.558c5.008-0.003,10.016-0.002,15.023-0.002
		c0.432,0,0.863,0,1.434,0c0-0.553,0-0.985,0-1.415c0.002-6.334,0-12.667,0.004-19.001c0-1.623,0.066-1.685,1.666-1.688
		c1.732-0.002,3.463,0.015,5.193-0.005c0.842-0.009,1.178,0.355,1.176,1.2c-0.014,9.168-0.021,18.336,0.006,27.506
		c0.004,1.206-0.701,1.277-1.58,1.277c-4.971-0.004-9.941-0.002-14.912-0.002c-0.439,0-0.879,0-1.525,0c0,0.492,0,0.913,0,1.334
		c0.006,5.561-0.037,11.12,0.041,16.68c0.031,2.25-0.309,4.226-2.365,5.526C62.01,92,60.904,92,59.801,92z"/>
	<path fill-rule="evenodd" clip-rule="evenodd" fill="#DDDDDD" d="M45.209,92c-0.033-0.474-0.094-0.949-0.095-1.423
		c-0.005-10.605-0.004-21.211-0.004-31.818c0-0.47,0-0.94,0-1.497c-5.132,0-10.131,0-15.214,0c0-1.829,0-3.576,0-5.414
		c12.351,0,24.696,0,37.113,0c0,1.754,0,3.502,0,5.379c-5.037,0-10.06,0-15.142,0c-0.031,0.368-0.071,0.615-0.071,0.862
		c-0.003,11.121-0.003,22.241,0,33.362c0,0.183,0.029,0.367,0.044,0.549C49.63,92,47.42,92,45.209,92z"/>
	<path fill-rule="evenodd" clip-rule="evenodd" fill="#DDDDDD" d="M49.409,23.029c0.343,0.099,0.68,0.215,1.027,0.295
		c3.052,0.709,4.643,3.079,4.593,5.656c-0.054,2.88-2.048,5.084-4.855,5.534c-3.819,0.613-6.804-2.055-6.871-5.571
		c-0.047-2.495,1.392-4.725,4.314-5.526c0.452-0.123,0.901-0.259,1.351-0.389C49.114,23.029,49.262,23.029,49.409,23.029z"/>
	<path fill-rule="evenodd" clip-rule="evenodd" fill="#DDDDDD" d="M10.502,29.439c0.299-0.8,0.522-1.64,0.91-2.393
		c1.597-3.097,5.875-3.75,8.629-1.659c2.682,2.037,2.739,6.668,0.069,8.724c-2.884,2.219-7.119,1.551-8.894-1.885
		c-0.339-0.656-0.48-1.414-0.714-2.125C10.502,29.881,10.502,29.661,10.502,29.439z"/>
	<path fill-rule="evenodd" clip-rule="evenodd" fill="#DDDDDD" d="M85,31.651c-1.098,2.076-2.602,3.526-5.107,3.791
		c-3.533,0.374-6.76-3.003-6.143-6.505c0.439-2.498,2.33-4.114,4.109-4.53c2.592-0.607,4.77,0.067,6.338,2.325
		c0.27,0.387,0.535,0.773,0.803,1.161C85,29.145,85,30.397,85,31.651z"/>
	<path fill-rule="evenodd" clip-rule="evenodd" fill="#DDDDDD" d="M63.15,50.154c-1.723,0-3.293,0-4.986,0c0-2.285,0-4.554,0-6.908
		c-0.535,0-0.951,0-1.486,0c0,2.282,0,4.544,0,6.881c-5.03,0-9.939,0-14.968,0c0-2.232,0-4.458,0-6.765c-0.536,0-0.955,0-1.502,0
		c0,2.22,0,4.444,0,6.754c-1.724,0-3.325,0-5.033,0c-0.021-0.283-0.064-0.598-0.066-0.915c-0.006-2.135,0.044-4.272-0.015-6.405
		c-0.081-2.917,2.107-5.645,5.158-6.32c4.279-0.947,8.566-0.5,12.848-0.565c1.772-0.026,3.62,0.159,5.305,0.669
		c1.635,0.494,3.16,1.363,3.875,3.24c0.572,1.506,0.955,2.966,0.887,4.585C63.088,46.277,63.15,48.156,63.15,50.154z"/>
</g>
</svg>
