<?xml version="1.0" encoding="utf-8"?>
<!-- Generator: Adobe Illustrator 16.0.0, SVG Export Plug-In . SVG Version: 6.00 Build 0)  -->
<!DOCTYPE svg PUBLIC "-//W3C//DTD SVG 1.1//EN" "http://www.w3.org/Graphics/SVG/1.1/DTD/svg11.dtd">
<svg version="1.1" id="图层_1" xmlns="http://www.w3.org/2000/svg" xmlns:xlink="http://www.w3.org/1999/xlink" x="0px" y="0px"
	 width="108px" height="108px" viewBox="0 0 108 108" enable-background="new 0 0 108 108" xml:space="preserve">
<g>
	<path fill="#DDDDDD" d="M49,106.67L0,80.037V26.636L49,0l49,26.636v53.401L49,106.67z M3,78.08l45.5,24.797L94,78.08V28.595
		L48.5,3.792L3,28.595V78.08z"/>
</g>
<path fill-rule="evenodd" clip-rule="evenodd" fill="#DDDDDD" d="M44.01,79.076c0-3.266-0.519-6.332,0.163-9.104
	c0.555-2.255,2.112-4.757,3.977-6.116c9.48-6.914,27.605-6.782,37.276-0.118c2.735,1.888,4.306,4.268,4.116,7.727
	c-0.132,2.419-0.025,4.852-0.025,7.612C74.353,79.076,59.438,79.076,44.01,79.076z"/>
<path fill-rule="evenodd" clip-rule="evenodd" fill="#DDDDDD" d="M45.168,55.698c-8.234,6.99-8.234,6.99-9.502,23.381
	c-9.376,0-18.782,0-28.182,0c-1.588-13.167-0.938-16.581,11.58-21.41C27.264,54.506,35.856,53.286,45.168,55.698z"/>
<path fill-rule="evenodd" clip-rule="evenodd" fill="#DDDDDD" d="M23.543,33.815c0.065-6.982,5.689-12.44,12.631-12.257
	c6.839,0.18,12.077,5.596,12.057,12.467c-0.019,7.057-5.489,12.523-12.461,12.454C28.75,46.407,23.477,40.945,23.543,33.815z"/>
<path fill-rule="evenodd" clip-rule="evenodd" fill="#DDDDDD" d="M66.907,50.468c-5.97,0.055-10.548-4.417-10.554-10.309
	c-0.008-5.622,4.573-10.28,10.214-10.39c5.796-0.113,10.521,4.563,10.531,10.421C77.108,45.912,72.644,50.414,66.907,50.468z"/>
</svg>
