<?xml version="1.0" encoding="utf-8"?>
<!-- Generator: Adobe Illustrator 16.0.0, SVG Export Plug-In . SVG Version: 6.00 Build 0)  -->
<!DOCTYPE svg PUBLIC "-//W3C//DTD SVG 1.1//EN" "http://www.w3.org/Graphics/SVG/1.1/DTD/svg11.dtd">
<svg version="1.1" id="图层_1" xmlns="http://www.w3.org/2000/svg" xmlns:xlink="http://www.w3.org/1999/xlink" x="0px" y="0px"
	 width="16px" height="16px" viewBox="0 0 16 16" enable-background="new 0 0 16 16" xml:space="preserve">
<path fill-rule="evenodd" clip-rule="evenodd" d="M11.932,15.885c-0.341-0.062-0.746-0.11-1.138-0.212
	c-2.971-0.771-5.339-2.467-7.388-4.71C1.78,9.184,0.723,7.125,0.137,4.815c-0.41-1.616,0.128-3.017,1.234-4.184
	c0.55-0.579,1.356-0.648,2.125-0.628c0.147,0.003,0.329,0.209,0.425,0.365C4.209,0.836,4.458,1.33,4.733,1.807
	c0.259,0.449,0.522,0.895,0.801,1.33c0.382,0.598,0.376,0.837-0.131,1.324c-0.309,0.297-0.651,0.561-0.979,0.84
	C4.357,5.359,4.289,5.414,4.224,5.473C3.703,5.946,3.691,6.142,4.02,6.76c1.177,2.207,2.859,3.898,5.067,5.075
	c0.65,0.349,0.835,0.346,1.333-0.215c0.33-0.371,0.624-0.774,0.964-1.135c0.504-0.532,0.734-0.526,1.35-0.153
	c0.839,0.509,1.692,0.99,2.546,1.474c0.62,0.35,0.658,0.513,0.566,1.228c-0.226,1.756-1.533,2.308-2.962,2.732
	C12.604,15.85,12.297,15.843,11.932,15.885z"/>
</svg>
