<?xml version="1.0" encoding="utf-8"?>
<!-- Generator: Adobe Illustrator 16.0.0, SVG Export Plug-In . SVG Version: 6.00 Build 0)  -->
<!DOCTYPE svg PUBLIC "-//W3C//DTD SVG 1.1//EN" "http://www.w3.org/Graphics/SVG/1.1/DTD/svg11.dtd">
<svg version="1.1" id="图层_1" xmlns="http://www.w3.org/2000/svg" xmlns:xlink="http://www.w3.org/1999/xlink" x="0px" y="0px"
	 width="42px" height="42px" viewBox="0 0 42 42" enable-background="new 0 0 42 42" xml:space="preserve">
<path fill="#FFFFFF" d="M34.629,31.896c2.282,2.265,4.551,4.511,6.811,6.768c0.5,0.495,0.662,1.103,0.446,1.778
	c-0.21,0.66-0.677,1.063-1.348,1.202c-0.616,0.125-1.16-0.054-1.611-0.496c-0.615-0.604-1.228-1.213-1.836-1.823
	c-1.543-1.528-3.085-3.059-4.624-4.593c-0.112-0.11-0.206-0.238-0.32-0.362c-0.185,0.145-0.364,0.291-0.551,0.432
	c-2.343,1.818-4.968,3.042-7.868,3.657c-0.765,0.161-1.545,0.271-2.322,0.346c-0.792,0.069-1.586,0.095-2.38,0.088
	c-0.897-0.019-1.787-0.11-2.672-0.256c-1.661-0.278-3.26-0.747-4.797-1.438c-2.43-1.087-4.548-2.607-6.36-4.557
	c-2.016-2.164-3.462-4.666-4.335-7.492c-0.327-1.064-0.553-2.146-0.7-3.247c-0.146-1.105-0.194-2.215-0.138-3.323
	c0.21-4.195,1.602-7.958,4.23-11.246c1.89-2.364,4.212-4.192,6.95-5.488c1.558-0.738,3.188-1.252,4.889-1.551
	c0.834-0.146,1.67-0.26,2.516-0.274c0.775-0.014,1.553-0.043,2.324,0.012c4.288,0.312,8.094,1.832,11.377,4.622
	c2.979,2.533,5.013,5.684,6.105,9.439c0.284,0.985,0.48,1.985,0.605,3.003c0.107,0.921,0.169,1.847,0.141,2.773
	c-0.079,2.715-0.669,5.313-1.826,7.776c-0.694,1.486-1.565,2.858-2.607,4.123c-0.028,0.038-0.058,0.073-0.085,0.11
	C34.628,31.892,34.624,31.907,34.629,31.896z M35.619,19.324c-0.02-0.338-0.034-0.803-0.077-1.263
	c-0.045-0.46-0.104-0.919-0.183-1.375c-0.317-1.884-0.965-3.648-1.942-5.287c-1.722-2.888-4.111-5.037-7.165-6.443
	c-1.974-0.909-4.053-1.37-6.22-1.43c-0.593-0.018-1.191,0.023-1.787,0.055c-0.798,0.043-1.586,0.178-2.362,0.363
	C12.345,4.79,9.411,6.617,7.118,9.434c-2.421,2.976-3.594,6.403-3.556,10.244c0.01,0.923,0.104,1.837,0.275,2.743
	c0.375,1.996,1.107,3.855,2.206,5.558c1.714,2.657,4.011,4.646,6.887,5.967c1.658,0.757,3.4,1.211,5.218,1.362
	c0.692,0.056,1.391,0.039,2.089,0.037c0.873-0.006,1.734-0.126,2.589-0.302c3.596-0.747,6.603-2.519,8.989-5.309
	C34.337,26.781,35.563,23.33,35.619,19.324z"/>
</svg>
