<?xml version="1.0" encoding="utf-8"?>
<!-- Generator: Adobe Illustrator 16.0.0, SVG Export Plug-In . SVG Version: 6.00 Build 0)  -->
<!DOCTYPE svg PUBLIC "-//W3C//DTD SVG 1.1//EN" "http://www.w3.org/Graphics/SVG/1.1/DTD/svg11.dtd">
<svg version="1.1" id="图层_1" xmlns="http://www.w3.org/2000/svg" xmlns:xlink="http://www.w3.org/1999/xlink" x="0px" y="0px"
	 width="16px" height="16px" viewBox="0 0 16 16" enable-background="new 0 0 16 16" xml:space="preserve">
<path fill-rule="evenodd" clip-rule="evenodd" fill="#FFFFFF" d="M8.377,15.919c-0.245-0.076-0.502-0.129-0.735-0.233
	c-0.386-0.176-0.674-0.465-0.817-0.874c-0.189-0.547,0.014-1.168,0.489-1.523c0.767-0.572,1.789-0.579,2.541,0.01
	c0.182,0.142,0.307,0.359,0.442,0.553c0.048,0.069,0.079,0.115,0.173,0.113c0.316-0.005,0.633,0.007,0.948-0.008
	c0.106-0.006,0.22-0.059,0.313-0.114c0.477-0.293,0.856-0.686,1.186-1.133c0.511-0.692,0.822-1.469,0.977-2.335
	c-0.113,0.006-0.215,0.011-0.314,0.018c-0.39,0.029-0.687-0.221-0.688-0.609c-0.006-1.426-0.004-2.854-0.002-4.281
	c0-0.301,0.166-0.489,0.434-0.596c-0.664-1.776-2.521-3.572-5.022-3.714c-2.581-0.148-4.78,1.477-5.684,3.705
	c0.038,0.02,0.077,0.041,0.116,0.062C2.928,5.065,3.04,5.229,3.053,5.456c0.003,0.047,0.005,0.093,0.005,0.14
	c0,1.365,0,2.73,0,4.094c-0.001,0.494-0.266,0.725-0.754,0.698c-1.125-0.061-1.941-0.823-2.202-1.933
	C-0.103,7.579-0.011,6.734,0.47,5.953c0.168-0.272,0.393-0.493,0.654-0.68C1.189,5.227,1.252,5.15,1.276,5.075
	C1.701,3.75,2.417,2.611,3.47,1.702C4.793,0.559,6.332-0.026,8.09,0.001c1.658,0.026,3.112,0.606,4.362,1.681
	c1.03,0.883,1.746,1.989,2.172,3.278c0.053,0.16,0.129,0.274,0.27,0.375c0.561,0.408,0.852,0.987,0.983,1.656
	c0.024,0.122,0.045,0.243,0.066,0.366c0,0.196,0,0.394,0,0.59c-0.011,0.039-0.026,0.077-0.032,0.117
	c-0.099,0.771-0.402,1.431-1.042,1.908c-0.039,0.03-0.072,0.091-0.078,0.14c-0.094,0.756-0.287,1.486-0.627,2.17
	c-0.458,0.917-1.085,1.689-1.947,2.261c-0.275,0.183-0.565,0.293-0.905,0.271c-0.278-0.018-0.56-0.009-0.84,0
	c-0.056,0.004-0.139,0.051-0.161,0.101c-0.232,0.482-0.629,0.759-1.126,0.909c-0.122,0.036-0.248,0.063-0.372,0.096
	C8.668,15.919,8.522,15.919,8.377,15.919z"/>
</svg>
