<?xml version="1.0" encoding="utf-8"?>
<!-- Generator: Adobe Illustrator 16.0.0, SVG Export Plug-In . SVG Version: 6.00 Build 0)  -->
<!DOCTYPE svg PUBLIC "-//W3C//DTD SVG 1.1//EN" "http://www.w3.org/Graphics/SVG/1.1/DTD/svg11.dtd">
<svg version="1.1" id="图层_1" xmlns="http://www.w3.org/2000/svg" xmlns:xlink="http://www.w3.org/1999/xlink" x="0px" y="0px"
	 width="114px" height="114px" viewBox="0 0 114 114" enable-background="new 0 0 114 114" xml:space="preserve">
<path fill="#FF1B1B" d="M27.712,90.133c0.797-1.907,1.406-3.197,1.881-4.538c1.295-3.629,0.642-6.354-2.718-8.949
	C19.201,70.697,11.912,64.26,4.303,57.881c6.34-3.135,6.577-3.601,4.825-10.203c-0.986-3.712-2.103-7.391-3.346-11.714
	c2.939,0.726,5.38,1.298,7.803,1.939c7.388,1.939,8.932,1.153,11.915-6.689c3.216,3.589,6.107,7.049,9.271,10.245
	c1.583,1.605,3.673,2.711,5.532,4.037c0.218-2.351,0.95-4.801,0.559-7.056c-1.25-7.208-2.933-14.33-4.411-21.495
	c-0.162-0.773-0.103-1.595-0.173-2.88c2.664,1.424,4.964,2.538,7.143,3.872c2.237,1.365,3.665,0.898,4.833-1.407
	c2.774-5.481,5.657-10.915,8.812-16.966c2.595,5.046,5.042,9.651,7.354,14.314c2.944,5.911,2.895,5.938,8.844,2.624
	c1.435-0.803,2.895-1.573,4.792-2.59c-1.825,9.374-3.626,18.204-5.167,27.066c-0.254,1.406,0.638,3.007,0.991,4.519
	c1.277-0.727,2.818-1.191,3.791-2.216c3.554-3.736,6.918-7.658,10.838-12.063c3.58,12.868,12.026,5.64,19.396,5.004
	c-1.037,4.199-2.065,8.175-2.997,12.172c-1.46,6.223-1.307,6.47,4.792,9.49c-7.046,5.957-13.849,11.838-20.813,17.551
	c-5.742,4.733-6.036,5.396-3.532,12.302c0.2,0.534,0.379,1.06,0.831,2.301c-6.602-0.977-12.729-1.862-18.861-2.83
	c-9.241-1.421-9.292-1.421-8.892,7.701c0.277,6.417,0.674,12.836,1.021,19.527c-1.743,0-2.952,0-3.777,0
	c0-7.51-0.105-14.813,0.03-22.079c0.103-5.796-0.154-6.317-5.983-5.567C42.611,87.713,35.548,88.933,27.712,90.133z"/>
</svg>
