<?xml version="1.0" encoding="utf-8"?>
<!-- Generator: Adobe Illustrator 16.0.0, SVG Export Plug-In . SVG Version: 6.00 Build 0)  -->
<!DOCTYPE svg PUBLIC "-//W3C//DTD SVG 1.1//EN" "http://www.w3.org/Graphics/SVG/1.1/DTD/svg11.dtd">
<svg version="1.1" id="图层_1" xmlns="http://www.w3.org/2000/svg" xmlns:xlink="http://www.w3.org/1999/xlink" x="0px" y="0px"
	 width="72px" height="72px" viewBox="0 0 72 72" enable-background="new 0 0 72 72" xml:space="preserve">
<path fill="#FF1B1B" d="M17.701,56.701c0.498-1.191,0.879-1.998,1.176-2.836c0.81-2.268,0.401-3.971-1.698-5.592
	c-4.795-3.717-9.35-7.738-14.104-11.724c3.961-1.958,4.109-2.25,3.015-6.375c-0.617-2.32-1.314-4.618-2.091-7.319
	c1.836,0.454,3.362,0.811,4.875,1.211c4.616,1.212,5.581,0.721,7.444-4.179c2.01,2.243,3.816,4.404,5.793,6.401
	c0.989,1.003,2.294,1.694,3.456,2.522c0.137-1.469,0.593-3,0.349-4.408c-0.781-4.504-1.832-8.954-2.756-13.43
	c-0.101-0.484-0.064-0.997-0.108-1.8c1.664,0.89,3.102,1.585,4.462,2.419c1.397,0.852,2.29,0.561,3.02-0.879
	c1.733-3.425,3.535-6.82,5.506-10.601c1.621,3.153,3.15,6.03,4.595,8.943c1.84,3.693,1.809,3.71,5.525,1.639
	c0.896-0.501,1.809-0.982,2.994-1.619c-1.141,5.857-2.266,11.374-3.229,16.912c-0.158,0.878,0.398,1.879,0.619,2.823
	c0.799-0.454,1.762-0.745,2.369-1.384c2.221-2.334,4.322-4.785,6.771-7.537c2.238,8.04,7.514,3.524,12.119,3.126
	c-0.648,2.624-1.291,5.108-1.873,7.605c-0.912,3.889-0.816,4.043,2.994,5.93c-4.402,3.722-8.652,7.396-13.004,10.966
	c-3.588,2.957-3.771,3.371-2.207,7.686c0.125,0.334,0.236,0.662,0.52,1.438c-4.125-0.609-7.953-1.164-11.785-1.768
	c-5.773-0.889-5.806-0.889-5.556,4.813c0.174,4.01,0.421,8.02,0.638,12.201c-1.088,0-1.844,0-2.36,0
	c0-4.693-0.066-9.256,0.019-13.797c0.064-3.621-0.096-3.947-3.738-3.479C27.011,55.189,22.597,55.951,17.701,56.701z"/>
</svg>
