<?xml version="1.0" encoding="utf-8"?>
<!-- Generator: Adobe Illustrator 16.0.0, SVG Export Plug-In . SVG Version: 6.00 Build 0)  -->
<!DOCTYPE svg PUBLIC "-//W3C//DTD SVG 1.1//EN" "http://www.w3.org/Graphics/SVG/1.1/DTD/svg11.dtd">
<svg version="1.1" id="图层_1" xmlns="http://www.w3.org/2000/svg" xmlns:xlink="http://www.w3.org/1999/xlink" x="0px" y="0px"
	 width="57px" height="57px" viewBox="0 0 57 57" enable-background="new 0 0 57 57" xml:space="preserve">
<path fill="#FF1B1B" d="M13.995,44.908c0.395-0.943,0.697-1.584,0.932-2.248c0.642-1.797,0.318-3.146-1.346-4.432
	C9.78,35.281,6.17,32.094,2.402,28.935c3.14-1.552,3.257-1.783,2.39-5.053c-0.489-1.839-1.042-3.66-1.657-5.801
	c1.456,0.36,2.665,0.643,3.864,0.96c3.659,0.961,4.423,0.572,5.9-3.312c1.593,1.777,3.025,3.491,4.592,5.073
	c0.784,0.795,1.818,1.343,2.739,2c0.108-1.164,0.47-2.378,0.277-3.494c-0.619-3.57-1.452-7.097-2.185-10.645
	c-0.08-0.384-0.051-0.791-0.085-1.427c1.319,0.706,2.458,1.257,3.537,1.918c1.107,0.675,1.815,0.444,2.393-0.697
	c1.374-2.715,2.802-5.406,4.364-8.403c1.285,2.499,2.497,4.78,3.643,7.089c1.457,2.927,1.434,2.94,4.379,1.299
	c0.711-0.397,1.434-0.779,2.373-1.283c-0.904,4.643-1.795,9.016-2.559,13.405c-0.125,0.696,0.316,1.49,0.49,2.238
	c0.633-0.359,1.396-0.59,1.879-1.097c1.76-1.851,3.426-3.793,5.367-5.974c1.773,6.373,5.955,2.793,9.605,2.478
	c-0.514,2.08-1.023,4.049-1.484,6.028c-0.723,3.083-0.646,3.205,2.373,4.7c-3.488,2.95-6.857,5.862-10.307,8.692
	c-2.844,2.344-2.99,2.672-1.75,6.092c0.1,0.266,0.188,0.525,0.412,1.141c-3.27-0.484-6.305-0.924-9.342-1.402
	c-4.576-0.703-4.602-0.703-4.403,3.814c0.138,3.18,0.333,6.357,0.505,9.672c-0.862,0-1.461,0-1.87,0
	c0-3.721-0.053-7.336,0.015-10.936c0.051-2.871-0.076-3.129-2.963-2.758C21.375,43.711,17.876,44.314,13.995,44.908z"/>
</svg>
