<?xml version="1.0" encoding="utf-8"?>
<!-- Generator: Adobe Illustrator 16.0.0, SVG Export Plug-In . SVG Version: 6.00 Build 0)  -->
<!DOCTYPE svg PUBLIC "-//W3C//DTD SVG 1.1//EN" "http://www.w3.org/Graphics/SVG/1.1/DTD/svg11.dtd">
<svg version="1.1" id="图层_1" xmlns="http://www.w3.org/2000/svg" xmlns:xlink="http://www.w3.org/1999/xlink" x="0px" y="0px"
	 width="144px" height="144px" viewBox="0 0 144 144" enable-background="new 0 0 144 144" xml:space="preserve">
<path fill="#FF1B1B" d="M35.271,113.551c1-2.393,1.764-4.01,2.359-5.691c1.625-4.551,0.805-7.969-3.409-11.223
	c-9.625-7.459-18.765-15.533-28.308-23.533c7.951-3.93,8.248-4.515,6.051-12.794c-1.237-4.656-2.638-9.269-4.197-14.69
	c3.687,0.91,6.748,1.628,9.785,2.432c9.266,2.432,11.202,1.446,14.942-8.389c4.033,4.5,7.659,8.84,11.626,12.848
	c1.985,2.013,4.606,3.4,6.938,5.063c0.273-2.949,1.191-6.021,0.701-8.849c-1.568-9.04-3.678-17.97-5.532-26.956
	c-0.203-0.97-0.128-2-0.217-3.611c3.34,1.786,6.226,3.183,8.958,4.855c2.805,1.712,4.596,1.127,6.06-1.764
	c3.479-6.874,7.095-13.688,11.051-21.277c3.255,6.329,6.323,12.104,9.222,17.951c3.693,7.413,3.631,7.447,11.092,3.29
	c1.799-1.006,3.631-1.973,6.01-3.248c-2.289,11.755-4.547,22.829-6.48,33.943c-0.318,1.763,0.799,3.771,1.242,5.667
	c1.602-0.911,3.535-1.494,4.756-2.779c4.457-4.686,8.676-9.604,13.592-15.128c4.488,16.138,15.082,7.073,24.324,6.276
	c-1.301,5.266-2.59,10.252-3.758,15.264c-1.832,7.804-1.639,8.114,6.008,11.9c-8.834,7.471-17.365,14.846-26.1,22.01
	c-7.201,5.938-7.572,6.77-4.432,15.428c0.252,0.67,0.475,1.33,1.043,2.887c-8.277-1.225-15.963-2.336-23.654-3.551
	c-11.589-1.781-11.652-1.781-11.15,9.658c0.348,8.049,0.846,16.098,1.279,24.49c-2.185,0-3.701,0-4.737,0
	c0-9.418-0.132-18.576,0.038-27.689c0.129-7.27-0.193-7.922-7.503-6.982C53.956,110.516,45.097,112.045,35.271,113.551z"/>
</svg>
