<?xml version="1.0" encoding="utf-8"?>
<!-- Generator: Adobe Illustrator 16.0.0, SVG Export Plug-In . SVG Version: 6.00 Build 0)  -->
<!DOCTYPE svg PUBLIC "-//W3C//DTD SVG 1.1//EN" "http://www.w3.org/Graphics/SVG/1.1/DTD/svg11.dtd">
<svg version="1.1" id="图层_1" xmlns="http://www.w3.org/2000/svg" xmlns:xlink="http://www.w3.org/1999/xlink" x="0px" y="0px"
	 width="16px" height="16px" viewBox="0 0 16 16" enable-background="new 0 0 16 16" xml:space="preserve">
<path fill-rule="evenodd" clip-rule="evenodd" fill="#FF1B1B" d="M3.957,12.574c0.11-0.264,0.194-0.441,0.26-0.626
	c0.179-0.502,0.089-0.877-0.375-1.236c-1.06-0.821-2.066-1.71-3.116-2.59C1.6,7.689,1.633,7.625,1.391,6.713
	C1.255,6.2,1.101,5.693,0.929,5.096c0.406,0.101,0.743,0.179,1.078,0.268C3.026,5.631,3.239,5.522,3.651,4.44
	c0.444,0.495,0.843,0.973,1.28,1.414C5.15,6.075,5.438,6.229,5.695,6.411c0.03-0.325,0.131-0.663,0.077-0.974
	C5.6,4.442,5.367,3.459,5.163,2.47C5.141,2.363,5.149,2.249,5.139,2.072c0.368,0.197,0.686,0.351,0.986,0.535
	C6.434,2.795,6.631,2.73,6.792,2.413C7.176,1.656,7.573,0.906,8.009,0.07c0.358,0.697,0.696,1.333,1.016,1.977
	c0.406,0.816,0.399,0.82,1.22,0.362c0.199-0.111,0.4-0.217,0.662-0.357c-0.252,1.294-0.5,2.513-0.713,3.737
	c-0.035,0.194,0.088,0.415,0.137,0.624c0.176-0.1,0.389-0.165,0.523-0.306c0.49-0.516,0.955-1.058,1.496-1.666
	c0.494,1.776,1.66,0.778,2.678,0.69c-0.143,0.58-0.285,1.129-0.414,1.68c-0.201,0.859-0.18,0.893,0.662,1.31
	c-0.973,0.822-1.912,1.634-2.873,2.423c-0.793,0.653-0.834,0.745-0.488,1.698c0.027,0.073,0.053,0.146,0.115,0.317
	c-0.912-0.136-1.758-0.259-2.604-0.391c-1.275-0.197-1.283-0.196-1.228,1.063c0.038,0.887,0.093,1.771,0.141,2.696
	c-0.24,0-0.407,0-0.521,0c0-1.038-0.015-2.045,0.004-3.049c0.015-0.801-0.021-0.872-0.826-0.769
	C6.014,12.24,5.039,12.408,3.957,12.574z"/>
</svg>
