<?xml version="1.0" encoding="utf-8"?>
<!-- Generator: Adobe Illustrator 16.0.0, SVG Export Plug-In . SVG Version: 6.00 Build 0)  -->
<!DOCTYPE svg PUBLIC "-//W3C//DTD SVG 1.1//EN" "http://www.w3.org/Graphics/SVG/1.1/DTD/svg11.dtd">
<svg version="1.1" id="图层_1" xmlns="http://www.w3.org/2000/svg" xmlns:xlink="http://www.w3.org/1999/xlink" x="0px" y="0px"
	 width="23.125px" height="16px" viewBox="0 0 23.125 16" enable-background="new 0 0 23.125 16" xml:space="preserve">
<path d="M15.928,15.942c-0.342-0.063-0.746-0.109-1.139-0.212c-2.971-0.771-5.338-2.468-7.388-4.71
	C5.775,9.241,4.72,7.183,4.133,4.873c-0.41-1.616,0.128-3.017,1.234-4.184c0.55-0.579,1.356-0.648,2.125-0.628
	C7.64,0.063,7.821,0.27,7.917,0.425c0.288,0.468,0.537,0.962,0.812,1.439c0.259,0.449,0.522,0.895,0.801,1.33
	c0.382,0.598,0.376,0.837-0.132,1.324C9.089,4.815,8.748,5.08,8.419,5.358C8.353,5.417,8.285,5.471,8.22,5.53
	C7.7,6.003,7.688,6.199,8.017,6.817c1.177,2.207,2.859,3.898,5.067,5.075c0.648,0.349,0.834,0.347,1.332-0.216
	c0.33-0.37,0.625-0.773,0.965-1.135c0.505-0.531,0.733-0.525,1.351-0.152c0.839,0.509,1.69,0.99,2.545,1.475
	c0.621,0.35,0.658,0.512,0.565,1.229c-0.225,1.756-1.532,2.308-2.961,2.73C16.6,15.907,16.293,15.9,15.928,15.942z"/>
</svg>
